<?xml version="1.0" encoding="UTF-8" standalone="no"?>
<svg xmlns="http://www.w3.org/2000/svg" width="1280" height="160" viewBox="0 0 1280 160">
  <rect width="1280" height="160" fill="#1B2A4A"/>

  <!-- Logo: icon + DECILION wordmark, white -->
  <g transform="translate(400 20) scale(0.071)" style="clip-rule:evenodd;stroke-linejoin:round;stroke-miterlimit:2;">
    <g fill="#ffffff" fill-rule="nonzero">
      <path d="M1524.73,424.237l263.628,0c100.131,0 185.218,16.538 255.261,49.615c70.043,33.076 123.497,80.889 160.362,143.437c36.866,62.548 55.298,138.322 55.298,227.321c0,89 -18.432,164.774 -55.298,227.322c-36.865,62.548 -90.319,110.361 -160.362,143.437c-70.043,33.077 -155.13,49.615 -255.261,49.615l-263.628,-0l-0,-840.747Zm97.44,660.927l194.099,-0c49.158,-0 91.68,-9.945 127.568,-29.834c35.888,-19.889 63.583,-47.793 83.085,-83.713c19.502,-35.919 29.253,-78.255 29.253,-127.007c-0,-48.903 -9.751,-91.277 -29.253,-127.121c-19.502,-35.843 -47.197,-63.709 -83.085,-83.598c-35.888,-19.889 -78.41,-29.834 -127.568,-29.834l-194.099,0l97.497,-167.635l-0,816.377l-97.497,-167.635Z"/>
      <path d="M2382.71,424.237l562.707,0l-0,178.868l-465.705,0l97.726,-166.683l-0,816.377l-97.726,-166.683l472.025,-0l0,178.868l-569.027,-0l0,-840.747Zm97.002,302.182l316.061,-0l-0,166.207l-316.061,-0l0,-166.207Z"/>
      <path d="M3095.09,1069.42c-40.387,-64.579 -60.581,-140.582 -60.581,-228.007c0,-85.598 20.346,-160.28 61.038,-224.047c40.692,-63.767 98.366,-113.153 173.023,-148.159c74.657,-35.005 162.603,-52.508 263.838,-52.508c12.997,-0 27.009,0.774 42.037,2.322c15.028,1.549 27.162,3.135 36.402,4.76l0,188.083c-7.057,-1.472 -17.281,-2.78 -30.671,-3.922c-13.391,-1.142 -26.635,-1.713 -39.734,-1.713c-58.791,-0 -110.05,9.459 -153.775,28.377c-43.725,18.918 -77.624,45.664 -101.695,80.238c-24.071,34.574 -36.107,75.774 -36.107,123.599c0,49.005 11.998,91.858 35.993,128.558c23.995,36.701 57.36,65.208 100.096,85.522c42.735,20.314 92.362,30.471 148.882,30.471c17.185,0 33.555,-0.571 49.11,-1.713c15.555,-1.142 27.159,-2.45 34.812,-3.922l0,186.864c-12.591,2.437 -27.263,4.43 -44.017,5.979c-16.754,1.548 -35.463,2.322 -56.126,2.322c-96.513,0 -180.966,-17.706 -253.357,-53.118c-72.391,-35.411 -128.781,-85.407 -169.168,-149.986Z"/>
      <rect x="3731.92" y="424.237" width="194.937" height="840.747"/>
      <path d="M4081.81,424.237l194.936,0l0,828.562l-97.953,-166.493l468.198,0l0,178.678l-565.181,-0l-0,-840.747Z"/>
      <rect x="4753.23" y="424.237" width="194.937" height="840.747"/>
      <path d="M5104.73,1023.57c-22.085,-54.172 -33.127,-113.826 -33.127,-178.964c0,-65.137 11.042,-124.792 33.127,-178.963c22.085,-54.171 53.309,-101.032 93.67,-140.581c40.362,-39.55 88.115,-70.167 143.257,-91.852c55.142,-21.685 116.094,-32.528 182.857,-32.528c66.762,0 127.673,10.843 182.733,32.528c55.059,21.685 102.808,52.302 143.246,91.852c40.438,39.549 71.7,86.41 93.785,140.581c22.085,54.171 33.127,113.826 33.127,178.963c0,65.138 -11.042,124.792 -33.127,178.964c-22.085,54.171 -53.347,101.032 -93.785,140.581c-40.438,39.55 -88.187,70.167 -143.246,91.852c-55.06,21.685 -115.971,32.528 -182.733,32.528c-66.763,-0 -127.715,-10.843 -182.857,-32.528c-55.142,-21.685 -102.895,-52.302 -143.257,-91.852c-40.361,-39.549 -71.585,-86.41 -93.67,-140.581Zm669.59,-178.964c-0,-50.122 -10.602,-94.016 -31.804,-131.68c-21.203,-37.665 -50.475,-67.302 -87.816,-88.911c-37.341,-21.609 -80.737,-32.413 -130.186,-32.413c-48.651,-0 -91.846,10.804 -129.587,32.413c-37.741,21.609 -67.216,51.246 -88.425,88.911c-21.209,37.664 -31.814,81.558 -31.814,131.68c0,49.311 10.605,93.001 31.814,131.072c21.209,38.071 50.684,67.911 88.425,89.52c37.741,21.609 80.936,32.413 129.587,32.413c49.449,0 92.845,-10.804 130.186,-32.413c37.341,-21.609 66.613,-51.449 87.816,-89.52c21.202,-38.071 31.804,-81.761 31.804,-131.072Z"/>
      <path d="M6100.84,405.408l12.185,-0l535.881,417.517l-0,228.959l-452.244,-364.666l99.115,-53.86l-0,631.626l-194.937,-0l0,-859.576Zm454.224,18.829l194.937,0l-0,840.747l-194.937,-0l0,-840.747Z"/>
    </g>
    <circle cx="370.854"  cy="1318.37" r="370.854" fill="#00b5b4"/>
    <circle cx="485.336"  cy="669.106" r="236.368" fill="#4cb944"/>
    <circle cx="562.312"  cy="232.554" r="154.862" fill="#ffd700"/>
    <circle cx="992.093"  cy="968.224" r="297.498" fill="#7768ae"/>
    <circle cx="898.206"  cy="435.768" r="191.540" fill="#ff6b35"/>
    <circle cx="838.807"  cy="98.897"  r="98.897"  fill="#a6a6a6"/>
  </g>
</svg>
